<svg version="1.1" xmlns="http://www.w3.org/2000/svg" xmlns:xlink="http://www.w3.org/1999/xlink" x="0px" y="0px"
	 width="20.3px" height="22.2px" viewBox="0 0 20.3 22.2" enable-background="new 0 0 20.3 22.2" xml:space="preserve">
<g id="hyperlink">
	<path class="hyperlink-path" fill="#CCCCCC" d="M19.1,9.4L17,11.5c-0.3-1-0.8-1.9-1.6-2.7L17,7.2c0.6-0.6,0.3-1.5-0.3-2.1l-1.6-1.6c-0.5-0.5-1.4-0.8-2-0.2
		L7.9,8.5c-0.6,0.6-0.4,1.4,0.1,2l0,0l0,0l2.8,2.8l-2.1,2.1l-2.8-2.8l0,0l0,0l0,0l0,0c-1.8-1.8-1.8-4.5-0.1-6.2L11,1.2
		c1.7-1.7,4.4-1.6,6.2,0.2L18.8,3C20.7,4.9,20.8,7.7,19.1,9.4z M11.5,7L11.5,7L9.4,9.1l0,0l2.7,2.7c0.6,0.6,0.8,1.5,0.3,2.1
		l-5.2,5.2c-0.6,0.6-1.5,0.3-2.1-0.3l-1.6-1.6c-0.5-0.5-0.8-1.4-0.2-2l1.6-1.6c-0.8-0.8-1.3-1.7-1.6-2.7L1.2,13
		c-1.7,1.7-1.6,4.4,0.2,6.2L3,20.8c1.8,1.8,4.7,1.9,6.3,0.3l5.2-5.2c1.7-1.7,1.6-4.5-0.3-6.3L11.5,7z"/>
</g>
</svg>
